<svg width="300" height="110" viewBox="0 0 300 110" fill="none" xmlns="http://www.w3.org/2000/svg">
  <!-- шестерёнка -->
  <g transform="translate(55,55)">
    <g fill="#1c5cab">
      <rect x="-5" y="-46" width="10" height="12" rx="2"/>
      <rect x="-5" y="-46" width="10" height="12" rx="2" transform="rotate(30)"/>
      <rect x="-5" y="-46" width="10" height="12" rx="2" transform="rotate(60)"/>
      <rect x="-5" y="-46" width="10" height="12" rx="2" transform="rotate(90)"/>
      <rect x="-5" y="-46" width="10" height="12" rx="2" transform="rotate(120)"/>
      <rect x="-5" y="-46" width="10" height="12" rx="2" transform="rotate(150)"/>
      <rect x="-5" y="-46" width="10" height="12" rx="2" transform="rotate(180)"/>
      <rect x="-5" y="-46" width="10" height="12" rx="2" transform="rotate(210)"/>
      <rect x="-5" y="-46" width="10" height="12" rx="2" transform="rotate(240)"/>
      <rect x="-5" y="-46" width="10" height="12" rx="2" transform="rotate(270)"/>
      <rect x="-5" y="-46" width="10" height="12" rx="2" transform="rotate(300)"/>
      <rect x="-5" y="-46" width="10" height="12" rx="2" transform="rotate(330)"/>
    </g>
    <circle r="36" fill="#1c5cab"/>
    <circle r="27" fill="#f2efe6"/>
    <text x="0" y="9" text-anchor="middle" font-family="Arial,Helvetica,sans-serif" font-weight="bold" font-size="26" fill="#1c5cab">ДГ</text>
  </g>
  <text x="112" y="74" font-family="Arial,Helvetica,sans-serif" font-weight="bold" font-size="52" fill="#1c5cab" letter-spacing="3">ДГТУ</text>
</svg>
