<svg width="1670" height="349" viewBox="0 0 1670 349" fill="none" xmlns="http://www.w3.org/2000/svg">
<path d="M497.828 102.55V148.506L503.473 148.911L503.068 172.693H493.397L492.587 158.583H459.935L459.131 172.693H449.466L449.061 148.911L453.903 148.506C456.225 144.607 457.987 140.4 459.137 136.01C460.758 130.364 461.156 124.319 461.156 117.463V102.55H497.828ZM472.84 120.287C472.84 126.737 472.03 133.187 470.422 138.833C469.612 142.056 468.005 145.689 466.796 148.506H485.334V113.032H472.84V120.28V120.287ZM562.727 129.953C562.727 148.5 551.847 159.381 535.322 159.381C518.79 159.381 509.119 146.885 509.119 130.763C509.119 113.83 520.005 101.335 536.531 101.335C553.455 101.335 562.727 114.235 562.727 129.953ZM522.423 130.763C522.423 141.644 527.657 149.709 536.126 149.709C544.588 149.709 549.423 141.644 549.423 130.763C549.423 120.685 544.588 111.817 536.126 111.817C527.258 111.412 522.423 119.875 522.423 130.763ZM585.291 102.55V123.914H606.253V102.55H618.747V158.583H606.247V135.2H585.285V158.583H572.791V102.556H585.285L585.291 102.55ZM672.76 156.963C670.343 158.172 665.102 159.381 658.653 159.381C639.31 159.381 629.234 147.291 629.234 131.162C629.234 112.216 642.937 101.335 659.861 101.335C666.311 101.335 671.551 102.544 673.57 103.753L670.748 113.83C668.33 112.621 664.703 111.817 660.266 111.817C650.19 111.817 642.532 117.862 642.532 130.358C642.532 141.644 649.387 148.493 660.266 148.493C664.298 148.493 668.33 147.689 670.748 146.48L672.76 156.963ZM695.324 102.55V125.933H696.533L711.85 102.55H727.166L707.818 127.541C715.077 129.161 718.299 134.396 720.717 140.846C722.736 146.892 724.343 152.937 727.166 158.583H713.463C711.451 154.956 710.641 150.519 709.033 146.088C707.014 139.637 704.596 134.801 697.742 134.801H695.324V158.178H682.83V102.55H695.324ZM784.414 129.953C784.414 148.5 773.534 159.381 757.008 159.381C740.483 159.381 730.805 146.885 730.805 130.763C730.805 113.83 741.691 101.335 758.217 101.335C775.141 101.335 784.414 114.235 784.414 129.953ZM744.109 130.763C744.109 141.644 749.35 149.709 757.812 149.709C766.274 149.709 771.116 141.644 771.116 130.763C771.116 120.685 766.274 111.817 757.812 111.817C748.945 111.412 744.109 119.875 744.109 130.763ZM806.173 102.55V119.078C806.173 127.946 805.768 136.814 805.37 144.474H805.768C808.591 138.023 812.623 130.364 815.851 124.319L827.939 102.145H840.838V158.178H829.148V141.65C829.148 133.187 829.148 125.528 829.952 117.869H829.553C827.136 124.724 823.503 131.978 819.876 138.023L808.591 158.178H794.085V102.55H806.173ZM813.832 89.6494C813.832 92.8714 815.041 94.8844 817.458 94.8844C819.876 94.8844 821.085 92.8714 821.085 89.6494H829.553C829.148 96.9036 824.313 99.7268 817.06 99.7268C809.8 99.7268 805.768 96.4985 804.964 89.6494H813.832ZM900.89 102.55V113.032H879.529V158.589H867.035V102.55H900.89ZM957.726 129.953C957.726 148.5 946.84 159.381 930.314 159.381C913.789 159.381 904.118 146.885 904.118 130.763C904.118 113.83 914.998 101.335 931.523 101.335C948.454 101.335 957.726 114.235 957.726 129.953ZM917.415 130.763C917.415 141.644 922.656 149.709 931.124 149.709C939.586 149.709 944.422 141.644 944.422 130.763C944.422 120.685 939.586 111.817 931.124 111.817C922.257 111.412 917.415 119.875 917.415 130.763ZM1008.92 156.963C1006.5 158.172 1001.26 159.381 994.809 159.381C975.46 159.381 965.384 147.291 965.384 131.162C965.384 112.216 979.087 101.335 996.017 101.335C1002.47 101.335 1007.71 102.544 1009.72 103.753L1006.9 113.83C1004.48 112.621 1000.85 111.817 996.416 111.817C986.34 111.817 978.682 117.862 978.682 130.358C978.682 141.644 985.536 148.493 996.416 148.493C1000.45 148.493 1004.48 147.689 1006.9 146.48L1008.92 156.963ZM1029.06 102.55L1037.13 122.711C1038.73 126.737 1039.95 129.965 1041.16 133.592H1041.56C1042.37 131.174 1043.17 127.547 1044.38 122.705L1050.42 102.55H1063.73L1053.25 130.37C1050.02 138.833 1046.39 147.297 1042.37 152.538C1038.73 156.975 1033.9 159.792 1027.45 159.792C1024.63 159.792 1023.02 159.393 1021.4 158.988L1022.21 148.911C1023.42 149.316 1024.63 149.316 1026.24 149.316C1030.27 149.316 1032.69 146.493 1033.9 144.075C1034.3 143.265 1033.9 142.461 1033.5 141.252L1014.55 102.151H1029.06V102.55ZM1110.49 102.55V148.506L1116.13 148.911L1115.72 172.693H1106.05L1105.25 158.583H1072.59L1071.79 172.693H1062.12L1061.71 148.911L1066.55 148.506C1068.87 144.607 1070.64 140.401 1071.79 136.01C1073.4 130.364 1073.8 124.319 1073.8 117.463V102.55H1110.49ZM1085.9 120.287C1085.9 126.737 1085.09 133.187 1083.48 138.833C1082.67 142.056 1081.06 145.689 1079.85 148.506H1098.39V113.032H1085.9V120.28V120.287ZM1138.7 144.068L1134.67 158.589H1121.77L1138.7 102.55H1155.23L1172.56 158.583H1158.85L1154.42 144.068H1138.7ZM1152.81 134.801L1149.18 122.711C1148.38 119.483 1147.17 115.045 1146.36 111.823C1145.56 115.045 1144.75 119.483 1143.94 122.705L1140.72 134.795L1152.81 134.801ZM1181.82 103.36C1185.86 102.55 1191.1 102.151 1198.75 102.151C1206.41 102.151 1212.06 103.759 1215.68 106.582C1219.31 109.405 1221.73 114.248 1221.73 119.483C1221.73 125.129 1220.12 129.56 1216.49 132.788C1212.06 136.814 1205.61 138.833 1198.35 138.833C1196.74 138.833 1195.13 138.833 1193.92 138.428V158.583H1181.42V103.36H1181.82ZM1194.32 128.756C1195.53 129.155 1196.74 129.155 1198.75 129.155C1205.61 129.155 1209.64 125.933 1209.64 120.287C1209.64 115.052 1206.01 112.228 1199.56 112.228C1197.14 112.228 1195.13 112.228 1194.32 112.627V128.756ZM1272.51 156.963C1270.1 158.172 1264.86 159.381 1258.41 159.381C1239.06 159.381 1228.99 147.291 1228.99 131.162C1228.99 112.216 1242.69 101.335 1259.62 101.335C1266.07 101.335 1271.31 102.544 1273.32 103.753L1270.5 113.83C1268.08 112.621 1264.46 111.817 1260.02 111.817C1249.94 111.817 1242.29 117.862 1242.29 130.358C1242.29 141.644 1249.14 148.493 1260.02 148.493C1264.05 148.493 1268.08 147.689 1270.5 146.48L1272.51 156.963ZM1295.09 113.032H1279.77V102.55H1322.9V113.032H1307.58V158.589H1295.09V113.032ZM1331.36 103.36C1334.59 102.955 1341.44 102.151 1347.89 102.151C1355.55 102.151 1360.38 102.955 1364.41 105.373C1368.45 107.386 1371.27 111.418 1371.27 116.254C1371.27 121.097 1368.45 125.933 1362 128.351C1368.45 129.965 1373.28 134.801 1373.28 142.062C1373.28 147.297 1370.86 151.329 1367.64 154.152C1363.61 157.374 1356.76 159.387 1345.47 159.387C1339.43 159.387 1334.59 158.988 1331.77 158.583V103.36H1331.36ZM1343.86 124.724H1347.89C1354.74 124.724 1357.97 121.901 1357.97 117.869C1357.97 113.438 1354.74 111.418 1349.1 111.418C1346.28 111.418 1344.67 111.418 1343.86 111.823V124.724ZM1343.86 149.715H1348.7C1354.34 149.715 1359.58 147.297 1359.58 141.657C1359.58 136.01 1354.34 133.991 1348.29 133.991H1343.86V149.715ZM1416.83 134.801H1396.27V148.101H1419.24V158.583H1383.37V102.556H1418.04V113.026H1396.27V124.724H1416.83V134.801ZM1442.21 102.55V123.914H1463.17V102.55H1475.66V158.583H1463.17V135.2H1442.21V158.583H1429.71V102.556L1442.21 102.55ZM1501.07 102.55V123.914H1522.03V102.55H1534.52V158.583H1522.03V135.2H1501.07V158.583H1488.57V102.556L1501.07 102.55ZM1559.92 102.55V121.901C1561.52 121.496 1563.94 121.496 1565.96 121.496C1577.65 121.496 1588.13 127.142 1588.13 140.043C1588.13 145.278 1586.52 149.31 1583.7 152.133C1578.45 157.779 1568.78 159.393 1560.72 159.393C1554.68 159.393 1549.83 158.988 1547.02 158.583V102.556L1559.92 102.55ZM1559.92 149.31C1560.72 149.715 1562.33 149.715 1564.35 149.715C1569.99 149.715 1575.23 146.493 1575.23 140.441C1575.23 133.991 1569.18 131.573 1564.35 131.573C1562.73 131.573 1561.13 131.573 1559.92 131.978V149.31ZM1606.27 102.55V158.583H1593.77V102.556L1606.27 102.55ZM1631.24 102.55V119.078C1631.19 127.548 1630.93 136.017 1630.44 144.474H1630.84C1633.66 138.023 1637.69 130.364 1640.92 124.319L1653.01 102.145H1665.91V158.178H1654.22V141.65C1654.22 133.187 1654.22 125.528 1655.03 117.869H1654.62C1652.2 124.724 1648.58 131.978 1644.95 138.023L1633.66 158.178H1619.15V102.55H1631.24ZM1638.9 89.6494C1638.9 92.8714 1640.11 94.8844 1642.53 94.8844C1644.95 94.8844 1646.16 92.8714 1646.16 89.6494H1654.62C1654.22 96.9036 1649.38 99.7268 1642.13 99.7268C1634.87 99.7268 1630.84 96.4985 1630.03 89.6494H1638.9ZM463.973 213.002H448.656V202.121H491.783V212.597H476.467V258.154H463.973V213.002ZM533.702 234.771H513.144V248.077H536.119V258.553H500.252V202.121H534.917V212.597H513.151V224.289H533.708L533.702 234.771ZM576.025 258.154L570.778 248.077C568.765 244.045 567.557 241.221 565.943 237.999C564.734 241.221 563.525 244.045 561.512 248.077L557.075 258.154H542.164L558.284 229.935L542.968 202.121H557.48L562.316 212.198C563.93 215.42 565.139 218.243 566.753 221.465C567.962 217.838 569.17 215.42 570.379 212.198L575.215 202.121H589.721L574.006 229.53L590.531 258.154H576.025ZM611.899 202.121V223.485H632.855V202.121H645.349V258.148H632.855V234.771H611.899V258.154H599.392V202.121H611.899ZM669.545 202.108V218.636C669.499 227.107 669.231 235.575 668.741 244.032H669.146C671.963 237.582 675.994 229.922 679.222 223.877L691.311 201.703H704.21V257.737H692.52V241.209C692.52 232.746 692.52 225.086 693.33 217.427H692.925C690.507 224.282 686.881 231.537 683.254 237.582L671.963 257.737H657.456V202.108H669.545ZM728.381 202.121V218.649C728.381 225.099 732.008 228.321 737.654 228.321C740.476 228.321 743.293 227.511 745.717 226.308V202.121H758.211V258.958H745.717V235.575H745.312C741.28 237.594 737.248 238.398 732.818 238.398C722.742 238.398 715.482 233.163 715.482 221.067V202.121H728.381ZM804.559 234.771H784.002V248.077H806.977V258.553H771.103V202.121H805.768V212.597H784.002V224.289H804.559V234.771ZM858.573 256.933C856.155 258.142 850.914 259.351 844.465 259.351C825.117 259.351 815.041 247.26 815.041 231.132C815.041 212.186 828.743 201.304 845.674 201.304C852.123 201.304 857.364 202.514 859.377 203.723L856.554 213.8C854.136 212.591 850.509 211.787 846.079 211.787C835.997 211.787 828.338 217.832 828.338 230.328C828.338 241.614 835.193 248.463 846.079 248.463C850.104 248.463 854.136 247.659 856.554 246.45L858.573 256.933ZM881.149 202.121V225.498H882.358L897.674 202.121H912.991L893.643 227.112C900.896 228.726 904.124 233.967 906.542 240.417C908.554 246.463 910.168 252.508 912.991 258.154H899.282C897.269 254.521 896.466 250.09 894.852 245.652C892.833 239.202 890.415 234.372 883.567 234.372H881.149V257.749H868.649V202.121H881.149ZM931.934 202.108V218.636C931.886 227.107 931.616 235.575 931.124 244.032H931.529C934.352 237.582 938.384 229.922 941.605 223.877L953.7 201.703H966.599V257.737H954.909V241.209C954.909 232.746 954.909 225.086 955.713 217.427H955.308C952.89 224.282 949.264 231.537 945.637 237.582L934.352 257.737H919.839V202.108H931.934ZM991.182 202.115V218.642C991.182 227.511 990.777 236.379 990.372 244.038H990.777C993.6 237.588 997.625 229.929 1000.85 223.884L1012.94 201.71H1025.84V257.743H1014.16V241.215C1014.16 232.752 1014.16 225.093 1014.96 217.433H1014.56C1012.14 224.289 1008.51 231.543 1004.88 237.588L993.6 257.743H979.087V202.115H991.182ZM998.84 189.619C998.84 192.841 1000.05 194.854 1002.47 194.854C1004.88 194.854 1006.09 192.841 1006.09 189.619H1014.56C1014.16 196.873 1009.32 199.697 1002.06 199.697C994.809 199.697 990.777 196.468 989.973 189.619H998.84ZM1064.14 202.121L1072.2 222.276C1073.81 226.308 1075.02 229.53 1076.23 233.157H1076.63C1077.44 230.739 1078.25 227.112 1079.46 222.276L1085.5 202.121H1098.8L1088.32 229.935C1085.09 238.398 1081.47 246.861 1077.44 252.103C1073.81 256.54 1068.97 259.363 1062.52 259.363C1059.7 259.363 1058.09 258.958 1056.48 258.553L1057.28 248.476C1058.49 248.881 1059.7 248.881 1061.32 248.881C1065.35 248.881 1067.77 246.058 1068.97 243.639C1069.38 242.829 1068.97 242.025 1068.57 240.816L1050.03 202.115L1064.14 202.121ZM1118.54 202.121V223.485H1139.51V202.121H1152V258.148H1139.51V234.771H1118.54V258.154H1106.05V202.121H1118.54ZM1176.18 202.108V218.636C1176.18 227.504 1175.78 236.373 1175.38 244.032H1175.78C1178.6 237.582 1182.63 229.922 1185.86 223.877L1197.95 201.703H1210.85V257.737H1199.16V241.209C1199.16 232.746 1199.16 225.086 1199.96 217.427H1199.56C1197.15 224.282 1193.51 231.537 1189.89 237.582L1178.6 257.737H1164.09V202.108H1176.18ZM1223.75 202.919C1226.98 202.514 1233.83 201.703 1240.28 201.703C1247.94 201.703 1252.77 202.514 1256.81 204.932C1260.84 206.945 1263.65 210.977 1263.65 215.813C1263.65 220.649 1260.84 225.491 1254.39 227.903C1260.84 229.524 1265.67 234.36 1265.67 241.614C1265.67 246.849 1263.25 250.887 1260.03 253.704C1256 256.933 1249.15 258.946 1237.86 258.946C1233.28 258.981 1228.7 258.71 1224.15 258.135V202.919H1223.75ZM1236.25 224.276H1240.28C1247.13 224.276 1250.36 221.459 1250.36 217.421C1250.36 212.996 1247.13 210.977 1241.49 210.977C1238.67 210.977 1237.05 210.977 1236.25 211.382V224.276ZM1236.25 249.267H1241.08C1246.73 249.267 1251.97 246.855 1251.97 241.209C1251.97 235.569 1246.73 233.55 1240.68 233.55H1236.25V249.267ZM1308.8 234.771H1288.24V248.077H1311.22V258.553H1275.74V202.121H1310.41V212.597H1288.64V224.289H1309.2V234.771H1308.8ZM1321.7 202.919C1325.74 202.108 1330.97 201.703 1338.63 201.703C1346.29 201.703 1351.93 203.317 1355.56 206.141C1359.19 208.964 1361.6 213.8 1361.6 219.041C1361.6 224.681 1360 229.119 1356.36 232.341C1351.93 236.373 1345.48 238.386 1338.23 238.386C1336.62 238.386 1335 238.386 1333.79 237.987V258.142H1321.3V202.912H1321.7V202.919ZM1334.2 228.308C1335.41 228.713 1336.62 228.713 1338.63 228.713C1345.48 228.713 1349.52 225.491 1349.52 219.845C1349.52 214.61 1345.89 211.781 1339.44 211.781C1337.02 211.781 1335 211.781 1334.2 212.186V228.308ZM1412.4 256.933C1409.98 258.142 1404.74 259.351 1398.29 259.351C1378.94 259.351 1368.86 247.26 1368.86 231.132C1368.86 212.186 1382.57 201.304 1399.5 201.304C1405.95 201.304 1411.19 202.514 1413.2 203.723L1410.38 213.8C1407.96 212.591 1404.33 211.787 1399.9 211.787C1389.82 211.787 1382.16 217.832 1382.16 230.328C1382.16 241.614 1389.02 248.463 1399.9 248.463C1403.93 248.463 1407.96 247.659 1410.38 246.45L1412.4 256.933ZM1434.15 202.108V218.636C1434.1 227.107 1433.84 235.575 1433.35 244.032H1433.75C1436.57 237.582 1440.6 229.922 1443.83 223.877L1455.92 201.703H1468.81V257.737H1457.12V241.209C1457.12 232.746 1457.12 225.086 1457.93 217.427H1457.53C1455.11 224.282 1451.49 231.537 1447.86 237.582L1436.57 257.737H1422.06V202.108H1434.15ZM1492.19 213.002H1477.28V202.121H1520.4V212.597H1505.09V258.154H1492.59V213.002H1492.19ZM1561.92 234.771H1541.37V248.077H1564.34V258.553H1528.47V202.121H1563.13V212.597H1541.37V224.289H1561.92V234.771ZM1585.7 213.002H1570.39V202.121H1613.51V212.597H1598.2V258.154H1585.7V213.002Z" fill="#11519C"/>
<g clip-path="url(#clip0_301_5157)">
<path d="M217.997 80.8317C195.905 79.7363 175.457 86.5098 159.175 98.5367L162.35 67.24C162.53 65.4292 164.084 64.0432 165.931 64.0432H270.086C271.595 64.0432 272.946 63.1043 273.464 61.7183L281.526 39.967C282.382 37.6421 280.648 35.1831 278.148 35.1831H139.808C137.961 35.1831 136.43 36.5691 136.227 38.3798L125.89 139.96C125.732 141.57 126.678 143.112 128.232 143.671L150.595 151.831C152.441 152.501 154.491 151.562 155.189 149.729C164.332 125.094 188.879 107.814 217.187 109.491C247.994 111.324 273.104 135.981 275.243 166.54C277.765 202.464 249.052 232.509 213.381 232.509C200.364 232.509 188.293 228.508 178.317 221.69C176.718 220.594 174.556 220.974 173.407 222.517L160.549 239.886C159.355 241.496 159.738 243.776 161.404 244.939C176.132 255.155 194.036 261.146 213.381 261.146C264.974 261.146 306.524 218.448 304.137 166.697C301.997 120.623 264.411 83.1566 217.997 80.8764V80.8317Z" fill="#11519C"/>
<path d="M192.121 153.731L171.763 146.309C169.939 145.638 167.912 146.533 167.214 148.321C157.621 172.33 133.231 188.984 105.284 187.107C74.6792 185.05 49.8621 160.482 47.7227 130.102C45.1779 94.1775 73.9135 64.1325 109.585 64.1325C110.148 64.1325 110.711 64.1325 111.252 64.1549C113.121 64.222 114.72 62.7913 114.923 60.9134L117.107 39.5199C117.31 37.4856 115.756 35.6972 113.707 35.5854C112.333 35.5183 110.982 35.4736 109.585 35.4736C59.3656 35.496 18.6943 75.8912 18.6943 125.698C18.6943 175.504 59.3656 215.877 109.54 215.877C112.761 215.877 115.959 215.698 119.111 215.385L90.3757 255.11C88.6642 257.457 90.3757 260.743 93.2808 260.743H120.53C121.679 260.743 122.737 260.207 123.413 259.29L183.136 178.567H183.091C187.617 172.397 191.356 165.624 194.193 158.381C194.936 156.503 193.991 154.401 192.099 153.708L192.121 153.731Z" fill="#11519C"/>
<path d="M155.932 283.053C161.337 285.58 163.837 289.045 161.787 293.337L161.404 294.164C160.504 296.086 158.837 297.271 156.292 297.428L155.91 298.255C157.734 300.311 158.252 302.614 157.013 305.252L156.585 306.146C154.558 310.393 150.257 311.176 144.492 308.471L131.588 302.413L143.546 277.241L155.955 283.053H155.932ZM139.83 300.736L145.821 303.531C148.23 304.671 149.897 304.38 150.752 302.547L151.09 301.832C151.946 300.021 151.135 298.545 148.636 297.383L142.713 294.611L139.808 300.736H139.83ZM144.74 290.386L150.37 293.024C152.554 294.052 154.108 293.672 154.896 292.018L155.234 291.302C156 289.693 155.279 288.307 153.027 287.234L147.465 284.641L144.74 290.386Z" fill="#11519C"/>
<path d="M183.586 291.839L185.816 321.012L179.285 319.447L178.79 313.255L167.552 310.55L164.287 315.826L158.139 314.35L173.497 289.402L183.564 291.817L183.586 291.839ZM170.57 305.677L178.384 307.554L177.528 296.869L176.155 296.534L170.57 305.654V305.677Z" fill="#11519C"/>
<path d="M197.819 294.008L205.701 304.872H206.985V293.985H213.831V304.85H215.115L222.974 293.963H230.721L221.758 306.392V308.091L231.487 321.772H223.177L215.115 310.371H213.831V321.795H206.985V310.371H205.701L197.684 321.795H189.645L199.08 308.426V306.795L189.78 293.963H197.819V294.008Z" fill="#11519C"/>
<path d="M253.264 288.173L254.593 293.493L240.743 296.914L242.094 302.279L254.075 299.328L255.358 304.447L243.378 307.398L244.864 313.277L258.916 309.812L260.245 315.133L239.504 320.252L232.726 293.247L253.264 288.173Z" fill="#11519C"/>
<path d="M262.25 284.417L266.934 294.253L276.663 289.693L271.978 279.857L278.194 276.928L290.175 302.077L283.959 305.006L279.05 294.678L269.321 299.238L274.23 309.566L268.015 312.495L256.034 287.346L262.25 284.417Z" fill="#11519C"/>
<path d="M298.349 261.593L305.983 269.417L306.907 268.523L305.578 254.641L311.005 249.41L312.514 265.371L313.505 266.377L330.958 268.97L325.17 274.537L310.87 272.39L309.857 273.374L317.851 281.578L312.919 286.34L293.417 266.355L298.349 261.593Z" fill="#11519C"/>
<path d="M321.342 234.365L349.628 242.524L345.867 248.046L339.854 246.324L333.368 255.825L337.197 260.721L333.661 265.907L315.532 242.859L321.342 234.342V234.365ZM329.832 251.332L334.336 244.715L323.977 241.764L323.189 242.927L329.832 251.332Z" fill="#11519C"/>
<path d="M328.977 221.444L341.881 217.554L342.286 216.347L331.904 212.837L334.111 206.399L344.493 209.908L344.898 208.701L337.061 197.792L339.561 190.504L348.501 202.956L350.123 203.515L366.315 198.798L363.635 206.6L350.145 210.49L349.74 211.697L360.64 215.363L358.433 221.801L347.533 218.135L347.128 219.342L355.438 230.587L352.848 238.143L343.142 224.953L341.588 224.439L326.364 229.044L328.954 221.488L328.977 221.444Z" fill="#11519C"/>
<path d="M339.876 164.461L362.328 165.423L362.486 161.756L373.903 162.248L373.611 168.731L367.756 168.485L366.967 186.347L372.823 186.593L372.53 193.075L361.112 192.584L361.225 190.058C358.41 188.403 354.198 187.196 345.911 186.838L338.885 186.526L339.853 164.439L339.876 164.461ZM346.204 180.579C354.806 181.116 358.747 182.099 361.54 183.373L362.035 172.196L345.145 171.458L344.74 180.49L346.204 180.557V180.579Z" fill="#11519C"/>
<path d="M332.692 128.157L360.032 121.965L361.563 128.627L334.224 134.819L332.692 128.157ZM338.66 154.089L347.398 152.122L346.002 146.086C344.38 139.044 346.587 134.953 352.127 133.701L353.546 133.388C359.221 132.114 362.982 134.886 364.581 141.838L367.508 154.581L340.169 160.773L338.638 154.111L338.66 154.089ZM360.572 149.148L359.289 143.56C358.658 140.765 357.419 139.558 354.852 140.139L353.996 140.341C351.474 140.922 350.889 142.531 351.542 145.326L352.825 150.914L360.572 149.171V149.148Z" fill="#11519C"/>
<path d="M318.977 119.55C320.599 118.678 320.937 117.628 320.216 116.309L320.103 116.085C319.473 114.923 318.347 114.498 316.725 115.37L314.541 111.346C318.302 109.334 321.004 110.742 323.031 114.453L323.234 114.833C325.238 118.522 324.945 121.584 321.207 123.596L319 119.55H318.977ZM328.121 119.617L344.02 111.1L343.547 110.228L322.175 108.686L318.64 102.18L343.299 88.9688L346.474 94.781L330.575 103.298L331.026 104.125L352.397 105.668L355.955 112.195L331.296 125.407L328.121 119.595V119.617Z" fill="#11519C"/>
<path d="M311.141 93.3951L327.445 83.2237L330.305 86.8675L316.365 100.057L311.141 93.3728V93.3951ZM336.093 79.2668L336.25 79.468C337.467 81.0105 337.354 83.1119 335.71 84.3861L335.642 84.4308C334.066 85.6603 331.927 85.3027 330.711 83.7378L330.553 83.5366C329.337 81.9941 329.494 79.8034 331.071 78.5962L331.138 78.5515C332.782 77.2773 334.877 77.7244 336.093 79.2668Z" fill="#11519C"/>
</g>
<defs>
<clipPath id="clip0_301_5157">
<rect width="355.187" height="286.679" fill="white" transform="translate(18.6943 35.1606)"/>
</clipPath>
</defs>
</svg>
