<svg width="121" height="74" viewBox="0 0 121 74" fill="none" xmlns="http://www.w3.org/2000/svg">
<path d="M60.1482 1.10059C26.9276 1.10059 0 14.7573 0 31.6013C0 48.4453 26.9302 62.102 60.1482 62.102C93.3661 62.102 120.296 48.4453 120.296 31.6013C120.296 14.7573 93.3661 1.10059 60.1482 1.10059ZM60.2624 61.0422C29.1975 61.0422 4.01784 47.8818 4.01784 31.6453C4.01784 15.4087 29.1975 2.24834 60.2624 2.24834C91.3248 2.24834 116.507 15.4087 116.507 31.6453C116.507 47.8818 91.3248 61.0422 60.2624 61.0422Z" fill="#3D5074"/>
<path d="M60.3378 0.950684C42.1289 0.950684 27.3691 14.641 27.3691 31.5264C27.3691 48.4118 42.1289 62.1021 60.3378 62.1021C78.5441 62.1021 93.3064 48.4118 93.3064 31.5264C93.3064 14.6384 78.5466 0.950684 60.3378 0.950684ZM60.4884 61.0396C44.4716 61.0396 31.4857 47.9129 31.4857 31.7203C31.4857 15.5276 44.4716 2.40088 60.4884 2.40088C76.5053 2.40088 89.4912 15.5276 89.4912 31.7203C89.4912 47.9129 76.5053 61.0396 60.4884 61.0396Z" fill="#3D5074"/>
<path d="M99.9546 10.0911C89.5347 15.0234 75.6138 18.0453 60.3008 18.0453C44.6501 18.0453 30.4513 14.889 19.9613 9.76025C19.6393 10.042 19.2419 10.254 18.7666 10.3626C28.9735 16.1272 43.8762 19.7643 60.4904 19.7643C76.5254 19.7643 90.9579 16.3702 101.121 10.952C100.635 10.771 100.245 10.466 99.9546 10.0911Z" fill="#3C5174"/>
<path d="M20.2892 52.9354C30.7091 48.0032 44.63 44.9787 59.943 44.9787C75.5936 44.9787 89.7924 48.135 100.282 53.2637C100.602 52.982 101.002 52.77 101.475 52.6614C91.2702 46.8994 76.365 43.2571 59.7534 43.2571C43.7184 43.2571 29.2858 46.6512 19.123 52.0695C19.6113 52.2556 19.9983 52.558 20.2892 52.9354Z" fill="#3C5174"/>
<path d="M116.968 30.3528H3.76172V32.0227H116.968V30.3528Z" fill="#3D5074"/>
<path d="M60.4913 61.5721C60.7069 61.5721 60.9095 61.5928 61.1016 61.629V1.94336H59.4238V61.7453C59.7407 61.6342 60.0939 61.5721 60.4913 61.5721Z" fill="#3D5074"/>
<path d="M83.4867 5.97182L85.4709 1.03442H72.9551L60.5925 30.5813H56.8525L64.7142 9.76923L59.1432 9.69426L55.9253 18.3903H55.2501L52.0452 9.73045H46.3989L52.8087 26.9079L51.3335 30.452H50.2141L41.9213 9.69168H36.5789L35.5608 18.7057L34.8985 18.654L32.304 9.79249L26.707 9.76664L32.9662 31.4136H38.5372L39.5293 19.7914H40.1397L60.2107 70.3028L75.4743 31.1836V30.5011L66.1634 30.5761L67.9191 26.0187L75.8561 26.0937L77.8404 21.0037H70.3605L72.1162 16.1413H79.5961L81.6556 11.1289H74.1004L76.2379 5.96407H83.4867V5.97182ZM68.0334 36.1753L60.5925 55.1416H59.9821L52.6191 36.1753H68.0334Z" fill="#F24944"/>
<path d="M60.2206 73.1407L40.3002 23.0042L39.4951 32.4498H32.1866L25.3301 8.72705L33.0879 8.76324L34.9293 15.0552L35.6513 8.65984H42.6273L50.7825 29.079L51.6941 26.8894L44.905 8.69603H52.7719L55.5899 16.3089L58.4234 8.6495L66.2071 8.75548L58.3533 29.5469H59.8986L72.2612 0H87.0028L84.1874 7.00542H76.9309L75.6505 10.1023H83.2031L80.2917 17.1827H72.8455L71.8378 19.9771H79.3567L76.5647 27.1402L68.6303 27.0652L67.6797 29.5365L76.5128 29.4641V31.3848L60.2206 73.1407ZM38.5757 18.7595H40.8482L60.205 67.4718L74.222 31.5477L64.6514 31.6252L67.2096 24.9817L75.1492 25.0567L76.3258 22.0425H68.8874L71.3885 15.1121H78.8996L80.1099 12.1677H72.5521L75.544 4.93482H82.785L83.9381 2.06544H73.6507L61.2881 31.6123H55.3561L63.223 10.7796L59.8648 10.733L56.6521 19.4187H54.5276L51.3227 10.7589H47.8944L53.9277 26.9231L52.0317 31.4804H49.5124L41.2196 10.7201H37.5109L36.485 19.8065L34.106 19.6229L31.527 10.8158L28.0935 10.8002L33.7527 30.3741H37.5862L38.5757 18.7595ZM61.3037 56.1778H59.2701L51.1019 35.1434H69.5523L61.3037 56.1778ZM54.1328 37.2089L60.2908 53.068L66.5136 37.2089H54.1328Z" fill="white"/>
<path d="M83.4847 5.9706L85.469 1.0332H72.9531L60.5905 30.58H56.8506L64.7123 9.768L59.1413 9.69304L55.9234 18.3891H55.2481L52.0432 9.72923H46.3969L52.8068 26.9067L51.3316 30.4508H50.2122L41.9194 9.69045H36.577L35.5589 18.7044L34.8966 18.6527L32.302 9.79127L26.7051 9.76542L32.9643 31.4124H38.5352L39.5274 19.7901H40.1377L60.2088 70.3015L75.4724 31.1824V30.4999L66.1615 30.5749L67.9172 26.0175L75.8542 26.0924L77.8384 21.0025H70.3585L72.1142 16.1401H79.5941L81.6537 11.1277H74.0985L76.236 5.96285H83.4847V5.9706ZM68.0315 36.174L60.5905 55.1404H59.9802L52.6172 36.174H68.0315Z" fill="#F24944"/>
</svg>
