<svg width="300" height="120" viewBox="0 0 300 120" fill="none" xmlns="http://www.w3.org/2000/svg">
  <g fill="#1d3a6e">
    <!-- звезда на шпиле -->
    <path d="M60 4l2.2 5.8L68 12l-5.8 2.2L60 20l-2.2-5.8L52 12l5.8-2.2z"/>
    <!-- шпиль -->
    <polygon points="60,16 62.6,42 57.4,42"/>
    <rect x="55.5" y="42" width="9" height="10"/>
    <!-- ярусы главного здания -->
    <rect x="50" y="52" width="20" height="14"/>
    <rect x="44" y="64" width="32" height="12"/>
    <rect x="36" y="74" width="48" height="12"/>
    <!-- боковые башенки -->
    <rect x="22" y="68" width="8" height="18"/>
    <rect x="90" y="68" width="8" height="18"/>
    <path d="M26 60l3 8h-6z"/>
    <path d="M94 60l3 8h-6z"/>
    <!-- крылья -->
    <rect x="12" y="84" width="96" height="12"/>
    <rect x="4" y="94" width="112" height="10"/>
    <!-- окна (светлые прорези) -->
    <g fill="#f2efe6">
      <rect x="53" y="55" width="3" height="8"/><rect x="58.5" y="55" width="3" height="8"/><rect x="64" y="55" width="3" height="8"/>
      <rect x="48" y="66.5" width="3" height="7"/><rect x="54" y="66.5" width="3" height="7"/><rect x="60" y="66.5" width="3" height="7"/><rect x="66" y="66.5" width="3" height="7"/>
      <rect x="40" y="76.5" width="3" height="7"/><rect x="46" y="76.5" width="3" height="7"/><rect x="52" y="76.5" width="3" height="7"/><rect x="58" y="76.5" width="3" height="7"/><rect x="64" y="76.5" width="3" height="7"/><rect x="70" y="76.5" width="3" height="7"/><rect x="76" y="76.5" width="3" height="7"/>
      <rect x="17" y="86.5" width="2.6" height="7"/><rect x="23" y="86.5" width="2.6" height="7"/><rect x="29" y="86.5" width="2.6" height="7"/><rect x="35" y="86.5" width="2.6" height="7"/><rect x="41" y="86.5" width="2.6" height="7"/><rect x="47" y="86.5" width="2.6" height="7"/><rect x="53" y="86.5" width="2.6" height="7"/><rect x="59" y="86.5" width="2.6" height="7"/><rect x="65" y="86.5" width="2.6" height="7"/><rect x="71" y="86.5" width="2.6" height="7"/><rect x="77" y="86.5" width="2.6" height="7"/><rect x="83" y="86.5" width="2.6" height="7"/><rect x="89" y="86.5" width="2.6" height="7"/><rect x="95" y="86.5" width="2.6" height="7"/><rect x="101" y="86.5" width="2.6" height="7"/>
    </g>
  </g>
  <text x="130" y="88" font-family="Georgia,'Times New Roman',serif" font-weight="bold" font-size="58" fill="#1d3a6e" letter-spacing="2">МГУ</text>
</svg>
