<svg width="573" height="210" viewBox="0 0 573 210" fill="none" xmlns="http://www.w3.org/2000/svg">
                <path d="M46.3133 135.267C43.5733 133.931 40.4908 133.009 37.0741 132.485V123.108H23.0564V132.485C19.6397 133.009 16.5572 133.931 13.8172 135.267C9.31447 137.465 5.88107 140.645 3.53366 144.821C1.17789 148.998 0 154.021 0 159.897V172.369C0 178.245 1.17789 183.267 3.53366 187.444C5.88942 191.621 9.31447 194.809 13.8172 196.999C16.5572 198.335 19.6397 199.256 23.0564 199.78V209.157H37.0741V199.78C40.4908 199.256 43.5733 198.335 46.3133 196.999C50.816 194.809 54.2411 191.621 56.5968 187.444C58.9526 183.267 60.1305 178.245 60.1305 172.369V159.897C60.1305 154.029 58.9526 148.998 56.5968 144.821C54.2411 140.653 50.816 137.465 46.3133 135.267ZM18.1945 182.549C15.4044 180.147 14.0093 176.757 14.0093 172.369V159.897C14.0093 155.509 15.4044 152.118 18.1945 149.717C19.5395 148.559 21.1601 147.688 23.0564 147.087V185.187C21.1601 184.586 19.5395 183.707 18.1945 182.549ZM46.1128 172.369C46.1128 176.757 44.7178 180.147 41.9276 182.549C40.5826 183.707 38.962 184.578 37.0657 185.178V147.079C38.9537 147.679 40.5826 148.55 41.9276 149.709C44.7178 152.11 46.1128 155.509 46.1128 159.889V172.369Z" fill="#E60000"></path>
                <path d="M121.873 128.147C118.975 126.701 115.491 125.974 111.423 125.974H103.963H96.503H89.9453V209.148H103.963V176.883H111.423C115.458 176.883 118.916 176.164 121.823 174.735C124.722 173.306 126.936 171.226 128.465 168.503C129.993 165.781 130.754 162.492 130.754 158.636V144.617C130.754 140.694 130.002 137.321 128.49 134.522C126.978 131.723 124.772 129.601 121.873 128.147ZM116.56 156.463C116.56 157.875 116.335 159.093 115.884 160.124C115.433 161.156 114.789 161.934 113.962 162.466C113.135 162.999 112.158 163.27 111.022 163.27H103.955V139.587H111.022C112.191 139.587 113.186 139.866 114.021 140.415C114.848 140.965 115.483 141.776 115.917 142.85C116.352 143.916 116.569 145.192 116.569 146.68V156.463H116.56Z" fill="#E60000"></path>
                <path d="M194.909 127.401C191.76 125.879 187.984 125.109 183.573 125.109C179.163 125.109 175.387 125.87 172.246 127.401C169.096 128.923 166.699 131.155 165.036 134.089C163.374 137.031 162.547 140.557 162.547 144.675V190.434C162.547 194.552 163.374 198.069 165.036 200.987C166.69 203.904 169.096 206.136 172.246 207.683C175.387 209.23 179.171 210 183.573 210C187.984 210 191.76 209.23 194.909 207.683C198.059 206.136 200.456 203.904 202.119 200.987C203.773 198.069 204.608 194.552 204.608 190.434V144.675C204.608 140.557 203.781 137.031 202.119 134.089C200.456 131.155 198.05 128.931 194.909 127.401ZM190.415 188.608C190.415 190.138 190.156 191.432 189.621 192.497C189.095 193.563 188.31 194.383 187.274 194.958C186.238 195.533 185.002 195.812 183.573 195.812C182.145 195.812 180.917 195.524 179.898 194.958C178.879 194.383 178.11 193.563 177.584 192.497C177.057 191.432 176.79 190.13 176.79 188.608V146.391C176.79 144.903 177.057 143.626 177.584 142.561C178.11 141.496 178.887 140.675 179.898 140.1C180.917 139.526 182.136 139.238 183.573 139.238C185.002 139.238 186.238 139.526 187.274 140.1C188.31 140.675 189.095 141.496 189.621 142.561C190.148 143.626 190.415 144.903 190.415 146.391V188.608Z" fill="#E60000"></path>
                <path d="M261.774 161.494H250.697V125.974H236.68V209.148H250.697V174.828H261.774V209.148H275.792V125.974H261.774V161.494Z" fill="#E60000"></path>
                <path d="M307.859 139.587H321.426V209.148H335.444V139.587H349.002V125.974H307.859V139.587Z" fill="#E60000"></path>
                <path d="M25.0947 53.0816H14.0176V17.5527H0V100.727H14.0176V66.407H25.0947V100.727H39.1124V17.5527H25.0947V53.0816Z" fill="#E60000"></path>
                <path d="M102.379 100.738H116.28L96.6653 17.5635H86.8329L67.2266 100.738H81.1272L83.6501 87.8095H99.8648L102.379 100.738ZM86.2398 74.5348L91.7616 46.2182L97.2835 74.5348H86.2398Z" fill="#E60000"></path>
                <path d="M177.483 19.7257C174.585 18.2799 171.101 17.5527 167.033 17.5527H159.565H152.105H145.547V100.727H159.565V68.4701H167.024C171.059 68.4701 174.518 67.7514 177.425 66.3225C180.324 64.8935 182.537 62.8136 184.066 60.091C185.595 57.3684 186.355 54.0793 186.355 50.2237V36.205C186.355 32.2733 185.603 28.9081 184.091 26.1094C182.588 23.3023 180.382 21.18 177.483 19.7257ZM172.17 48.0423C172.17 49.4543 171.945 50.6719 171.494 51.7034C171.043 52.7349 170.399 53.5128 169.572 54.0455C168.745 54.5782 167.768 54.8487 166.632 54.8487H159.565V31.1741H166.632C167.801 31.1741 168.795 31.4531 169.631 32.0027C170.458 32.5523 171.093 33.364 171.527 34.4378C171.962 35.5032 172.179 36.7799 172.179 38.268V48.0423H172.17Z" fill="#E60000"></path>
                <path d="M250.495 18.9945C247.346 17.4725 243.57 16.7031 239.159 16.7031C234.748 16.7031 230.973 17.4641 227.832 18.9945C224.682 20.5164 222.285 22.7486 220.622 25.691C218.968 28.625 218.133 32.1508 218.133 36.277V82.0366C218.133 86.1543 218.96 89.6717 220.622 92.5888C222.276 95.5058 224.682 97.738 227.832 99.2853C230.973 100.833 234.757 101.602 239.159 101.602C243.57 101.602 247.346 100.833 250.495 99.2853C253.645 97.738 256.042 95.5058 257.705 92.5888C259.359 89.6717 260.194 86.1543 260.194 82.0366V36.2685C260.194 32.1508 259.367 28.625 257.705 25.6826C256.042 22.7486 253.645 20.5164 250.495 18.9945ZM246.001 80.2018C246.001 81.7322 245.734 83.0259 245.207 84.0912C244.681 85.1566 243.896 85.9768 242.86 86.5517C241.824 87.1267 240.588 87.4057 239.159 87.4057C237.731 87.4057 236.503 87.1182 235.484 86.5517C234.464 85.9768 233.696 85.1566 233.17 84.0912C232.643 83.0259 232.376 81.7238 232.376 80.2018V37.9849C232.376 36.4968 232.635 35.2201 233.17 34.1547C233.696 33.0893 234.473 32.2692 235.484 31.6942C236.503 31.1193 237.722 30.8318 239.159 30.8318C240.588 30.8318 241.824 31.1193 242.86 31.6942C243.896 32.2607 244.681 33.0893 245.207 34.1547C245.734 35.2201 246.001 36.4968 246.001 37.9849V80.2018Z" fill="#E60000"></path>
                <path d="M333.313 87.1139V17.5527H325.97H319.304H309.923H307.208H297.091V70.1273C297.091 75.7669 296.523 80.0115 295.395 82.8524C294.268 85.6934 292.572 87.1139 290.308 87.1139H289.013H287.484V100.727V111.431H300.374V100.727H319.312H327.056V111.431H339.938V87.1139H335.811H333.313ZM306.606 87.1139C307.224 85.761 307.751 84.2898 308.168 82.6833C309.338 78.2021 309.923 72.8161 309.923 66.5254V31.1741H319.304V87.1223H306.606V87.1139Z" fill="#E60000"></path>
                <path d="M395.689 53.0816H384.611V17.5527H370.594V100.727H384.611V66.407H395.689V100.727H409.698V17.5527H395.689V53.0816Z" fill="#E60000"></path>
                <path d="M499.315 17.5527H485.297V100.727H499.315V17.5527Z" fill="#E60000"></path>
                <path d="M473.264 52.0247C470.516 50.5197 467.199 49.7671 463.315 49.7671H456.924V17.5527H442.906V100.727H450.082H456.916H463.306C467.149 100.727 470.457 99.9912 473.23 98.5284C476.004 97.0572 478.109 94.9265 479.563 92.1194C481.016 89.3122 481.735 85.9471 481.735 82.0238V68.8675C481.735 64.8597 481.008 61.4269 479.563 58.569C478.117 55.7112 476.012 53.5297 473.264 52.0247ZM467.725 78.7094C467.725 80.4681 467.441 81.9731 466.873 83.2329C466.314 84.4927 465.512 85.4566 464.467 86.1246C463.431 86.7926 462.195 87.1223 460.767 87.1223H456.924V63.3801H460.767C462.195 63.3801 463.44 63.7267 464.501 64.4116C465.553 65.0965 466.355 66.0942 466.898 67.3878C467.441 68.6899 467.717 70.2457 467.717 72.0805V78.7094H467.725Z" fill="#E60000"></path>
                <path d="M561.806 17.5527L544.171 69.1296V17.5527H531.398V100.676H542.701L560.219 49.3951V100.676H573V17.5527H561.806Z" fill="#E60000"></path>
                <path d="M559.677 0H546.703V13.131H559.677V0Z" fill="#E60000"></path>
            </svg>